# xmcd CD database file
#
# Track frame offsets:
#	150
#	17086
#	32287
#	47924
#	68604
#	97475
#	119381
#	135720
#	163917
#	178350
#	185901
#	209011
#	233864
#
# Disc length: 3318 seconds
#
# Revision: 0
# Processed by: cddbd v1.5.1PL0 Copyright (c) Steve Scherf et al.
# Submitted via: CDex 1.51
#
DISCID=c70cf40d
DTITLE=Lisa Ekdahl and Petre Nordhal Trio - Back To Earth
DYEAR=1998
DGENRE=Jazz
TTITLE0=Track01 - Stranger on Earth
TTITLE1=Track02 - Nature Boy
TTITLE2=Track03 - Now or Never
TTITLE3=Track04 - Laziest Girl in The Town
TTITLE4=Track05 - It Had To Be You
TTITLE5=Track06 - Down With Love
TTITLE6=Track07 - What is This Thing Call Love
TTITLE7=Track08 - Tea For Two
TTITLE8=Track09 - The Lonely One
TTITLE9=Track10 - I Get A Kick Out Of You
TTITLE10=Track11 - Just For A Thrill
TTITLE11=Track12 - Night and Day
TTITLE12=Track13 - Plaintive Rumba
EXTD=YEAR: 1998
EXTT0=
EXTT1=
EXTT2=
EXTT3=
EXTT4=
EXTT5=
EXTT6=
EXTT7=
EXTT8=
EXTT9=
EXTT10=
EXTT11=
EXTT12=
PLAYORDER=
